<?xml version="1.0" encoding="utf-8"?>
<!-- Generator: Adobe Illustrator 18.1.1, SVG Export Plug-In . SVG Version: 6.00 Build 0)  -->
<svg version="1.1" id="Layer_1" xmlns="http://www.w3.org/2000/svg" xmlns:xlink="http://www.w3.org/1999/xlink" x="0px" y="0px"
	 viewBox="0 0 208.4 165.1" enable-background="new 0 0 208.4 165.1" xml:space="preserve">
<g>
	<polygon fill="#BA5D3C" points="1.2,83.8 28.5,71.2 23.6,85.8 	"/>
	<polygon fill="#BA5D3C" points="205.5,82.8 178.2,70.2 183.1,84.8 	"/>
	<circle fill="#FFFFFF" stroke="#32656D" stroke-width="8" stroke-miterlimit="10" cx="104.2" cy="82.2" r="76.5"/>
	<g id="ti1QEw.tif">
		<g>
			<path fill="#32656D" d="M122.9,18.2c1.2,0,2.2,0.9,2.3,2.1c1.4,14.7,3.2,29,3.6,43.3c0.4,11.6-5.4,20.5-16.8,24.5
				c-4.8,1.7-6.8,5-6.9,9.6c-0.2,13.5-0.3,27.1,0.1,40.6c0.1,1.8,2.7,4.7,4.7,5.2c4.2,1.1,9.6,1.2,13.9,2.2c0.4,0.1,0.4,0.3,0.2,0.5
				c-13.2,0-26.5,0-39.7,0c0,0-0.3-0.3,0-0.7c4.3-0.5,8.7-1.1,13-1.6c5.1-0.6,6-3.6,5.9-9.8l0-36.6c-0.3-6.2,0.1-7-8-9.9
				c-10.3-3.8-16-12.3-15.6-22.9c0.5-14.6,2.7-29.2,4.3-43.8c0.1-1,1.8-2.6,2.8-2.6C98.5,18.1,110.1,18.2,122.9,18.2z M104.7,21.4
				c-4.6,0-9.3,0.2-13.9-0.1c-3.3-0.2-5.1,0.9-5.4,4.3c-1.2,12.1-3.1,24.2-3.5,36.3c-0.5,13.6,9.7,23.8,22.4,23.7
				c12.7,0,22.6-10.3,22.3-23.9c-0.2-9.8-1-19.7-2.6-29.4c-2.2-13.3,0.5-10.7-12.9-11C108.9,21.3,106.8,21.4,104.7,21.4z"/>
			<path fill="#32656D" d="M84.7,53c13.1,0,26,0,39,0c2.7,9.9-0.1,20-7.5,25.4c-6.7,5-15.8,5.3-22.8,0.9
				C85.5,74.3,82.4,65.5,84.7,53z"/>
		</g>
	</g>
	<path fill="#ED906B" d="M203.4,125H5c-2.8,0-5-2.2-5-5V87.2c0-2.8,2.2-5,5-5h198.4c2.8,0,5,2.2,5,5V120
		C208.4,122.7,206.2,125,203.4,125z"/>
	<text transform="matrix(1 0 0 1 27.0955 113.7201)" fill="#FFFFFF" font-family="'AktivGrotesk-Regular'" font-size="30.8637">DATEFORT</text>
</g>
</svg>
